<svg xmlns="http://www.w3.org/2000/svg" version="1.1" xmlns:xlink="http://www.w3.org/1999/xlink" xmlns:svgjs="http://svgjs.dev/svgjs" width="2000" height="1247" viewBox="0 0 2000 1247"><g transform="matrix(1,0,0,1,-1.2121212121212466,0.504858299595071)"><svg viewBox="0 0 396 247" data-background-color="#0c1d36" preserveAspectRatio="xMidYMid meet" height="1247" width="2000" xmlns="http://www.w3.org/2000/svg" xmlns:xlink="http://www.w3.org/1999/xlink"><g id="tight-bounds" transform="matrix(1,0,0,1,0.2400000000000091,-0.09999999999999432)"><svg viewBox="0 0 395.52 247.2" height="247.2" width="395.52"><g><svg></svg></g><g><svg viewBox="0 0 395.52 247.2" height="247.2" width="395.52"><g transform="matrix(1,0,0,1,79.19410566552901,47.215199999999996)"><svg viewBox="0 0 237.13178866894197 152.7696" height="152.7696" width="237.13178866894197"><g><svg viewBox="0 0 237.13178866894197 152.7696" height="152.7696" width="237.13178866894197"><g><svg viewBox="0 0 237.13178866894197 152.7696" height="152.7696" width="237.13178866894197"><g><svg viewBox="0 0 237.13178866894197 152.7696" height="152.7696" width="237.13178866894197"><g id="textblocktransform"><svg viewBox="0 0 237.13178866894197 152.7696" height="152.7696" width="237.13178866894197" id="textblock"><g><svg viewBox="0 0 237.13178866894197 152.7696" height="152.7696" width="237.13178866894197"><g transform="matrix(1,0,0,1,0,0)"><svg width="237.13178866894197" viewBox="5.03 -35.77 55.51 35.77" height="152.7696" data-palette-color="#f9cc0b"><path d="M11.08 0L5.03 0 5.03-35.77 26.78-35.77 25.98-31.47 11.08-31.47 11.08-20.68 24.27-20.68 23.49-16.5 11.08-16.5 11.08 0ZM54.15 0L51.1-9.23 36.77-9.23 33.76 0 28.34 0 41.01-35.77 47.87-35.77 60.54 0 54.15 0ZM38.06-13.38L49.75-13.38 45.51-26.61 44.16-31.71 43.67-31.71 42.36-26.61 38.06-13.38Z" opacity="1" transform="matrix(1,0,0,1,0,0)" fill="#f9cc0b" class="wordmark-text-0" data-fill-palette-color="primary" id="text-0"></path></svg></g></svg></g></svg></g></svg></g></svg></g></svg></g></svg></g><path d="M134.025 41.215L134.025 0 381.225 0 381.225 247.2 134.025 247.2 134.025 205.985 147.802 205.985 147.802 233.423 367.448 233.423 367.448 13.777 147.802 13.777 147.802 41.215Z" fill="#f9cc0b" stroke="transparent" data-fill-palette-color="tertiary"></path></svg></g><defs></defs></svg><rect width="395.52" height="247.2" fill="none" stroke="none" visibility="hidden"></rect></g></svg></g></svg>